<svg width="24" height="24" viewBox="0 0 24 24" fill="none" xmlns="http://www.w3.org/2000/svg">
<path d="M7.52159 3.59999C7.73223 3.23516 8.03519 2.93219 8.40002 2.72155C8.76486 2.5109 9.17871 2.4 9.59999 2.39999H15C16.1139 2.39999 17.1822 2.84249 17.9698 3.63015C18.7575 4.4178 19.2 5.48608 19.2 6.59999V18.6C19.1999 18.7085 19.1704 18.815 19.1147 18.9081C19.0589 19.0012 18.9789 19.0774 18.8832 19.1286C18.7875 19.1799 18.6797 19.2042 18.5713 19.199C18.4629 19.1938 18.3579 19.1593 18.2676 19.0992L18 18.9216V6.59999C18 5.80434 17.6839 5.04128 17.1213 4.47867C16.5587 3.91606 15.7956 3.59999 15 3.59999H7.52159ZM7.19999 4.79999C6.56347 4.79999 5.95302 5.05285 5.50293 5.50294C5.05284 5.95302 4.79999 6.56347 4.79999 7.19999V21C4.80004 21.1085 4.82954 21.215 4.88532 21.3081C4.94111 21.4012 5.02111 21.4774 5.11679 21.5286C5.21247 21.5799 5.32025 21.6042 5.42866 21.599C5.53706 21.5938 5.64203 21.5593 5.73239 21.4992L10.8 18.1212L15.8676 21.4992C15.9579 21.5593 16.0629 21.5938 16.1713 21.599C16.2797 21.6042 16.3875 21.5799 16.4832 21.5286C16.5789 21.4774 16.6589 21.4012 16.7147 21.3081C16.7704 21.215 16.7999 21.1085 16.8 21V7.19999C16.8 6.56347 16.5471 5.95302 16.097 5.50294C15.647 5.05285 15.0365 4.79999 14.4 4.79999H7.19999ZM5.99999 7.19999C5.99999 6.88173 6.12642 6.57651 6.35146 6.35147C6.5765 6.12642 6.88173 5.99999 7.19999 5.99999H14.4C14.7182 5.99999 15.0235 6.12642 15.2485 6.35147C15.4736 6.57651 15.6 6.88173 15.6 7.19999V19.8792L11.1324 16.9008C11.0339 16.8353 10.9183 16.8003 10.8 16.8003C10.6817 16.8003 10.5661 16.8353 10.4676 16.9008L5.99999 19.8792V7.19999Z" fill="#757575"/>
</svg>
