<svg width="24" height="24" viewBox="0 0 24 24" fill="none" xmlns="http://www.w3.org/2000/svg">
<path d="M22.8 6.60001C22.8 8.03218 22.2311 9.40569 21.2184 10.4184C20.2057 11.4311 18.8322 12 17.4 12C15.9678 12 14.5943 11.4311 13.5816 10.4184C12.5689 9.40569 12 8.03218 12 6.60001C12 5.16784 12.5689 3.79433 13.5816 2.78164C14.5943 1.76894 15.9678 1.20001 17.4 1.20001C18.8322 1.20001 20.2057 1.76894 21.2184 2.78164C22.2311 3.79433 22.8 5.16784 22.8 6.60001ZM18 4.20001C18 4.04088 17.9368 3.88827 17.8243 3.77575C17.7117 3.66323 17.5591 3.60001 17.4 3.60001C17.2409 3.60001 17.0882 3.66323 16.9757 3.77575C16.8632 3.88827 16.8 4.04088 16.8 4.20001V6.00001H15C14.8409 6.00001 14.6882 6.06323 14.5757 6.17575C14.4632 6.28827 14.4 6.44088 14.4 6.60001C14.4 6.75914 14.4632 6.91175 14.5757 7.02428C14.6882 7.1368 14.8409 7.20001 15 7.20001H16.8V9.00001C16.8 9.15914 16.8632 9.31175 16.9757 9.42428C17.0882 9.5368 17.2409 9.60001 17.4 9.60001C17.5591 9.60001 17.7117 9.5368 17.8243 9.42428C17.9368 9.31175 18 9.15914 18 9.00001V7.20001H19.8C19.9591 7.20001 20.1117 7.1368 20.2243 7.02428C20.3368 6.91175 20.4 6.75914 20.4 6.60001C20.4 6.44088 20.3368 6.28827 20.2243 6.17575C20.1117 6.06323 19.9591 6.00001 19.8 6.00001H18V4.20001ZM18 19.8216V13.1736C18.406 13.1369 18.8077 11.8022 19.2 11.6912V21C19.1999 21.1106 19.1692 21.2191 19.1113 21.3134C19.0535 21.4076 18.9707 21.4841 18.8721 21.5343C18.7735 21.5844 18.6629 21.6064 18.5527 21.5976C18.4424 21.5889 18.3367 21.5499 18.2472 21.4848L12 16.9416L5.75279 21.4848C5.66331 21.5499 5.55759 21.5889 5.44731 21.5976C5.33703 21.6064 5.22649 21.5844 5.12789 21.5343C5.0293 21.4841 4.94649 21.4076 4.88863 21.3134C4.83076 21.2191 4.80008 21.1106 4.79999 21V5.40001C4.79999 4.60436 5.11606 3.8413 5.67867 3.27869C6.24128 2.71608 7.00434 2.40001 7.79999 2.40001H12.3084C12.0028 2.77017 11.7384 3.17255 11.52 3.60001H7.79999C7.3226 3.60001 6.86476 3.78965 6.5272 4.12722C6.18963 4.46479 5.99999 4.92262 5.99999 5.40001V19.8216L11.6472 15.7152C11.7497 15.6407 11.8732 15.6005 12 15.6005C12.1268 15.6005 12.2503 15.6407 12.3528 15.7152L18 19.8216Z" fill="black" fill-opacity="0.5"/>
<rect x="6" y="3" width="2" height="16" fill="#808080"/>
<rect x="6" y="3" width="5" height="14" fill="#808080"/>
<rect x="4.93799" y="18.1906" width="5.20244" height="2.23205" transform="rotate(-30 4.93799 18.1906)" fill="#808080"/>
<rect x="11" y="13" width="7" height="4" fill="#808080"/>
<rect x="16.0884" y="15" width="4.12823" height="2.95339" transform="rotate(45 16.0884 15)" fill="#808080"/>
<rect x="17" y="19" width="1" height="1" fill="#808080"/>
<rect x="9" y="3" width="3" height="10" fill="#808080"/>
<rect x="12" y="12" width="7" height="2" fill="#808080"/>
</svg>
